<svg xmlns="http://www.w3.org/2000/svg" viewBox="0 0 210.46 52.6"><defs><style>.cls-1{font-size:21px;font-family:Montserrat-Medium, Montserrat;letter-spacing:-0.01em;}.cls-1,.cls-5{fill:#f24741;}.cls-2{letter-spacing:0em;}.cls-3{letter-spacing:-0.01em;}.cls-4{letter-spacing:0em;}</style></defs><title>Logo</title><g id="Layer_2" data-name="Layer 2"><g id="TOKEN_SALE" data-name="TOKEN SALE"><g id="LOGO"><g id="_Group_" data-name="&lt;Group&gt;"><text class="cls-1" transform="translate(72.03 44.5)">P<tspan class="cls-2" x="14.89" y="0">ROMET</tspan><tspan class="cls-3" x="93.93" y="0">E</tspan><tspan class="cls-4" x="107.88" y="0">OS</tspan></text></g><g id="_Group_2" data-name="&lt;Group&gt;"><g id="_Group_3" data-name="&lt;Group&gt;"><g id="_Group_4" data-name="&lt;Group&gt;"><path id="_Path_" data-name="&lt;Path&gt;" class="cls-5" d="M41.34,51.83c-.59-.87-1.14-1.69-1.78-2.47a11.57,11.57,0,0,0-9-4.21,12.14,12.14,0,0,0-10.25,5.71c-.11.17-.21.36-.31.54s-.19.35-.3.51a.5.5,0,0,1-.43.28.78.78,0,0,1-.32-.08c-.09,0-.32-.15-.17-.58a6.26,6.26,0,0,1,.7-1.46,12.75,12.75,0,0,1,11-6.05,12.49,12.49,0,0,1,10.08,4.79l.71.85.78.92.38-.51a5.51,5.51,0,0,0,1.08-4.73,11.66,11.66,0,0,0-3.4-5.54L3.42,3.08C3.2,2.86,3,2.65,2.71,2.4l-1-.91-.27.68A4.88,4.88,0,0,0,2.19,7a6.23,6.23,0,0,0,.89,1l.25.24L29.49,34.4c.25.25.5.5.73.76.44.5.34.69.16.91s-.27.19-.31.19a1.24,1.24,0,0,1-.69-.34,8.67,8.67,0,0,1-.78-.74L6.26,12.73a2,2,0,0,0-.38-.28l-.24-.16-.57-.38-.19.66a5.18,5.18,0,0,0,1.34,5.49l4.69,4.7L23.58,35.44l.23.22c.13.12.25.24.37.37.41.47.42.62.42.65s-.12.22-.68.56c-1-.89-2-1.91-3-2.89-.55-.57-1.1-1.13-1.67-1.69-1.1-1.07-2.17-2.16-3.25-3.25l-1.7-1.71L8.61,22l-.24.8A5,5,0,0,0,9.51,28.1c1.16,1.21,2.34,2.39,3.53,3.57l2.9,2.9q1.5,1.49,3,3a12,12,0,0,1,.82,1l.21.26-.51.63-.07,0a1.75,1.75,0,0,1-.47-.25c-1.18-1.13-2.34-2.28-3.49-3.44-.65-.65-1.29-1.31-1.93-2-1.29-1.33-2.63-2.71-4-4-2.62-2.44-3.21-5.07-1.85-8.25l.13-.31L7,20.37c-.39-.4-.79-.8-1.19-1.18a6.41,6.41,0,0,1-1.86-7.43A3.12,3.12,0,0,0,4,11.33l.13-.55L3.34,10C2.88,9.5,2.41,9,2,8.54.05,6.39-.46,4.17.4,1.76a5.65,5.65,0,0,1,.48-1C1.17.26,1.42,0,1.6,0s.37.09.83.54c1.66,1.63,3.3,3.27,4.94,4.92l6.78,6.78q13.19,13.19,26.37,26.4a21.84,21.84,0,0,1,2.76,3.27c2.52,3.77,2,7.73-1.42,10.69Z"/></g><g id="_Group_5" data-name="&lt;Group&gt;"><path id="_Path_2" data-name="&lt;Path&gt;" class="cls-5" d="M43.41,37.44l.17-.21c.28-.35.54-.66.82-.94q3.9-3.92,7.82-7.82a5.47,5.47,0,0,0,1.53-5.57l-.2-.8L52.47,23c-.3.26-.56.48-.81.73l-9.95,9.92-.25.27a1.77,1.77,0,0,1-.49.44.88.88,0,0,1-.33.06.92.92,0,0,1-.37-.07.29.29,0,0,1-.16-.17.44.44,0,0,1,.06-.34,5.9,5.9,0,0,1,.93-1.1l1.85-1.85q6.27-6.28,12.57-12.53a5.58,5.58,0,0,0,1.87-5,1.61,1.61,0,0,0-.18-.49l-.15-.33-.28-.66-1.39,1.3c-.63.58-1.23,1.15-1.81,1.73L46,22.61l-7.88,7.9c-.55.55-.83.67-1,.67h0s-.12,0-.29-.16-.2-.29-.21-.33.08-.43.67-1L51.7,15.26l7.07-7.06a11.46,11.46,0,0,0,1-1.08,5.28,5.28,0,0,0,.94-4.9l-.2-.79-1.08.94c-.28.24-.51.43-.72.65L35.22,26.46l-.27.28a5.74,5.74,0,0,1-.81.74.72.72,0,0,1-.4.15.51.51,0,0,1-.37-.19c-.16-.17-.26-.35.08-.73.19-.21.4-.42.6-.62l6.73-6.72C46.79,13.37,53,7.16,59.1,1c.78-.79,1.19-1,1.39-1s.66.49,1.09,1.56A6,6,0,0,1,60.3,8.24a13.15,13.15,0,0,1-1.52,1.42c-.25.21-.51.42-.75.64l-.23.21.08.3c1.31,4.66,1.13,5.22-3.2,10l-.17.18,0,.24c.06.34.13.67.2,1a17.82,17.82,0,0,1,.36,2.17,5.16,5.16,0,0,1-1.37,4c-1,1.07-1.93,2.07-2.76,2.91q-2.9,2.94-5.82,5.84c-.27.26-.55.51-.88.79l-.19.16Z"/></g><g id="_Group_6" data-name="&lt;Group&gt;"><path id="_Path_3" data-name="&lt;Path&gt;" class="cls-5" d="M41.15,45.45a1.68,1.68,0,0,1-.94-.55,3.94,3.94,0,0,1-1.39-3.16,7.56,7.56,0,0,1,2.4,3.71Z"/></g></g></g></g></g></g></svg>