<svg xmlns="http://www.w3.org/2000/svg" viewBox="0 0 398.04 583.12"><defs><style>.cls-1{fill:#efefef;}</style></defs><title>EOS LOGO</title><g id="Layer_2" data-name="Layer 2"><g id="ABOUT2"><g id="_Group_" data-name="&lt;Group&gt;"><g id="_Group_2" data-name="&lt;Group&gt;"><g id="_Group_3" data-name="&lt;Group&gt;"><path id="_Compound_Path_" data-name="&lt;Compound Path&gt;" class="cls-1" d="M199,583.12a19.89,19.89,0,0,1-10.45-3.39c-62.64-38.54-126-77.16-179.68-109.86C1.08,465.12-1.37,459.4.7,450.73c11.87-49.65,23.87-100.14,35.47-149q14.69-61.81,29.41-123.62a25.91,25.91,0,0,1,4.27-9C105,121,145.86,65,186.57,9.94c1.92-2.61,4.82-4.6,7.89-6.72,1.46-1,3-2,4.47-3.21,1.53,1.09,3,2,4.45,2.91,2.93,1.83,5.46,3.4,7.08,5.6,35.72,48.39,73.5,99.93,118.87,162.2,2,2.76,3.06,6.41,3.91,10q12.56,52.73,25.08,105.48c12.73,53.61,25.89,109,38.94,163.54,2.28,9.53-.33,15.57-9,20.84-59.39,36-119.43,72.74-178.45,109.05C205.86,582,202.44,583.12,199,583.12Zm68.11-112.68c-5.63,0-11.69,0-19.07.08-1.89,0-4.65,2-5.19,3.66-5.22,16.38-10.31,33-15.69,50.65l-4.58,15,110.34-67.47-1.57-.1C312.42,471,292.61,470.44,267.12,470.44Zm-195-.06a26.78,26.78,0,0,0-3.87.41c-.88.13-1.91.29-3.17.44l-1.42.18,111.9,68.37-.39-1.26c-1.91-6.22-3.76-12.23-5.57-18.08-4.66-15.08-9.06-29.33-13.18-43.54-1.43-4.92-3.79-6.66-9-6.66h-.26c-13.11.13-26.3.15-36.32.15l-29,0Zm125.59,48.77,2.74,0,14.81-48.25H182.85Zm6.93-76.3c4.68,0,8.24.06,11.57.18H217c5.17,0,7.71-2.06,9.39-7.61,6-19.88,12.2-40.08,18.18-59.61,8-26.06,16.23-53,24.18-79.56a17.67,17.67,0,0,0-1.52-12.51c-17.09-29.64-34.74-59.61-51.81-88.59L204,175.86c-.8-1.36-1.68-2.67-2.69-4.17-.51-.76-1.06-1.58-1.64-2.47l-.36-.55-.43.49c-.5.56-.88,1-1.2,1.31a8,8,0,0,0-1.11,1.35L189.38,184c-19.67,33.39-40,67.91-59.86,102a11,11,0,0,0-.89,7.89c16.89,55.77,30.87,101.29,44,143.27.77,2.45,4.74,5.37,7.46,5.5,4.76.21,9.5.24,13.08.24l5.7,0Zm-167.13-.47H145.65L108.5,321.46Zm215.07-.23h108L289.57,321.46ZM317,234c-.67,1.75-1.22,3.15-1.68,4.32-.81,2.05-1.34,3.41-1.78,4.82-.93,3-1.89,6.06-2.85,9.09-2.77,8.76-5.63,17.81-7.82,26.88A20.71,20.71,0,0,0,304.56,293c9.34,16.66,19.24,33.37,28.81,49.54q4.34,7.33,8.67,14.67c.91,1.54,1.91,3.06,2.88,4.52.45.69.91,1.37,1.35,2.06l.23.36,2-.88v-.45L317.59,232.52ZM79.55,236.55l-30,126.38L52,364l.22-.38c2.87-4.88,5.67-9.92,8.37-14.81,6.05-10.94,12.31-22.24,19.85-32.31,16.16-21.58,18.47-41.7,7.29-63.33a60.28,60.28,0,0,1-4-11.27c-.5-1.78-1-3.61-1.6-5.39l-.14-.42ZM212.82,70q0,8,0,15.94c0,14.33-.09,29.16.2,43.73a30.69,30.69,0,0,0,3.75,14c11.33,19.82,23.12,39.81,34.52,59.14l9.33,15.84c4.39,7.47,8.82,14.92,13.48,22.78l7.23,12.19.37-1c.48-1.22.91-2.27,1.3-3.21.74-1.8,1.33-3.22,1.78-4.7q1.86-6.06,3.73-12.12c4.47-14.45,9.09-29.4,13.17-44.23a16.3,16.3,0,0,0-2.12-12.23c-22.13-30.74-44.91-61.8-66.94-91.83L219.67,66.75c-.87-1.18-1.84-2.31-3.19-3.86-.77-.89-1.68-1.94-2.78-3.24l-.88-1Zm-29.21-10L182.06,62c-.65.79-1,1.26-1.4,1.75l-14,19.11c-22.81,31.12-46.4,63.31-69.4,95.11-1.78,2.46-2,6.92-1.19,9.81,3.33,11.82,7,23.75,10.62,35.28q1.63,5.24,3.25,10.48c1.25,4.06,2.53,8.11,3.89,12.42l2.28,7.22.59-.68c.57-.66,1-1.17,1.42-1.58a10.61,10.61,0,0,0,1.4-1.72l6-10.11c19-32.24,38.62-65.58,57.78-98.46,1.67-2.86,1.94-6.64,2-8.64.14-20.4.1-41.14.06-61.19V67.86a35.49,35.49,0,0,0-.38-4.32c-.12-.92-.25-2-.38-3.2l-.13-1.2Z"/></g></g></g></g></g></svg>