<svg xmlns="http://www.w3.org/2000/svg" viewBox="0 0 629.95 537.57"><defs><style>.cls-1{fill:#efefef;}</style></defs><title>PROMETEOS LOGO</title><g id="Layer_2" data-name="Layer 2"><g id="ABOUT"><g id="_Group_" data-name="&lt;Group&gt;"><g id="_Group_2" data-name="&lt;Group&gt;"><g id="_Group_3" data-name="&lt;Group&gt;"><path id="_Path_" data-name="&lt;Path&gt;" class="cls-1" d="M422,537.57c-9-12.83-16.66-25.3-25.86-36.48-47.45-57.68-140.52-53.68-183.94,14.49-2.19,3.44-3.84,7.23-6.08,10.64-3.4,5.16-8.35,6.29-13.77,3.8-5.18-2.38-5.89-7.34-4.3-12a67.21,67.21,0,0,1,7.56-15.71c27.49-40.62,66.15-62.85,114.93-62.64,41.45.17,77.07,16.8,103.87,49.73,3.28,4,6.71,7.95,10.78,12.76,10-13.6,13.58-27.37,9.9-43.14-5-21.35-17.51-37.89-32.58-53L274.87,278.46Q155.26,158.87,35.65,39.29C32.37,36,28.91,32.94,24.27,28.6,17.46,45.53,22.35,59.25,31,72.18c2.88,4.31,7,7.83,10.69,11.55Q171.81,213.87,302,344c2.89,2.89,5.82,5.75,8.52,8.82,4.17,4.75,6.49,9.87,1.62,15.59-4.28,5-9.61,4.87-16.92-.91A118.93,118.93,0,0,1,285,357.83Q212.16,284.62,139.3,211.36,101.63,173.48,64,135.6c-1.15-1.16-2.73-1.89-5.5-3.76-5.72,19.79-1.75,36,12.11,49.94q32.14,32.31,64.4,64.49L244,355.36c2.07,2.07,4.3,4,6.21,6.18,8.5,9.75,7.56,13.33-6.93,21.43-17.35-14.48-32.73-32-49.32-48.21s-33-33.07-49.56-49.59-32.93-32.84-51.06-50.92c-5.83,19.65-2.24,35,10.18,47.93,15.74,16.46,32,32.4,48.13,48.53,15.27,15.3,30.68,30.47,45.82,45.89,4.41,4.49,8.12,9.68,13.09,15.67l-10.1,12.49c-4.3-2.22-7.89-3.18-10.24-5.43-11.82-11.29-23.38-22.86-34.91-34.45C135.57,345,116.52,324.38,96,305.28c-26.54-24.75-34.56-53-19.7-88-5.67-5.69-11.23-11.53-17.07-17.08C35.81,177.85,28,151.69,39.45,120.67c.59-1.61.84-3.36,1.61-6.57-6.42-6.5-13.65-13.22-20.18-20.55C2.09,72.44-5.55,48.58,4.34,20.89A61.73,61.73,0,0,1,9.52,9.82c7.27-12.06,13-13,23.25-3C54,27.71,75,48.87,96.09,69.94Q254.73,228.59,413.23,387.36c10.25,10.29,20.1,21.36,28.15,33.4C467.36,459.61,463.86,504.34,422,537.57Z"/></g><g id="_Group_4" data-name="&lt;Group&gt;"><path id="_Path_2" data-name="&lt;Path&gt;" class="cls-1" d="M587.91,111.56c13.73,48.66,11.38,55.6-33.11,104.7,2,10.76,4.8,21.4,5.69,32.2,1.36,16.4-3.93,31.19-14.92,43.52-8.94,10-18.28,19.69-27.71,29.25q-28.93,29.34-58.17,58.37c-4.05,4-8.55,7.62-14.27,12.68l-13.84-13c5.13-6,8.86-11,13.22-15.42q38.92-39.18,78.12-78.09c13.9-13.77,19.1-29.74,13.92-50.91-4.91,4.34-8.85,7.48-12.4,11q-49.72,49.46-99.34,99c-2.89,2.88-5.48,6.67-9,8.16a15,15,0,0,1-11.11-.26c-4.84-2.33-5.74-7.69-3.12-12.13s6.36-8.27,10-11.95q71.9-71.92,144-143.62c12.92-12.78,19.86-27.19,17.21-45.5-.23-1.58-1.26-3-2.9-6.86-9.45,8.92-18.31,16.87-26.71,25.27q-77.4,77.53-154.67,155.2c-9.09,9.11-13.94,10.15-19.36,5.32-6-5.32-4.95-11.44,4.38-20.79q105.93-106.1,212-212.06c4.13-4.13,8.46-8.14,12-12.73,9.85-12.62,13.07-26.61,8.45-44.63-5.07,4.45-8.53,7.16-11.62,10.24Q477.46,155.66,360.25,272.8c-3.72,3.71-7.22,7.79-11.48,10.77-4.64,3.24-10,3.53-14.28-1.12-4.43-4.8-3.19-9.6.79-14,2.35-2.6,4.85-5.07,7.33-7.55C425.7,177.82,509.05,95,591.66,11.5,609-6,616.05-2.09,624.66,19.11,635.53,45.89,629,69.57,611,90.55,604.16,98.45,595.49,104.74,587.91,111.56Z"/></g><g id="_Group_5" data-name="&lt;Group&gt;"><path id="_Path_3" data-name="&lt;Path&gt;" class="cls-1" d="M388.68,411.67c20.17,16.47,28.7,29.19,34.07,49.94-8,5.11-14,.32-19.46-4.55C390.24,445.38,385.59,430.73,388.68,411.67Z"/></g></g></g></g></g></svg>