<svg xmlns="http://www.w3.org/2000/svg" viewBox="0 0 869.67 619.19"><defs><style>.cls-1{fill:#badbff;opacity:0.8;}.cls-2{fill:#8abeff;opacity:0.45;isolation:isolate;}.cls-3{fill:none;stroke:#39b54a;stroke-miterlimit:10;stroke-width:4px;}.cls-4{fill:#f0db8d;}.cls-5{fill:#f24741;}.cls-6{fill:#ff6e69;}.cls-7{fill:#fefefe;}.cls-8{fill:#9dc7f1;}.cls-9{fill:#b1d8ff;}.cls-10{fill:#e9f5ff;}</style></defs><title>ILUSTRACION</title><g id="Layer_2" data-name="Layer 2"><g id="LANDING"><g id="Ilustracion"><polygon class="cls-1" points="319.42 583.57 410.08 615.1 536.05 619.2 680.18 553.84 728.47 501.45 773.21 399.94 783.01 293 760.67 196.41 719.14 132.01 663.15 77.89 596.55 40.83 563.46 32.65 485.07 19.44 404.17 30.73 349.57 49.42 302.74 78.94 276.24 106.36 218.91 167.32 174.82 298.85 190.92 413.15 238.51 514.64 319.42 583.57"/><polygon class="cls-2" points="728.47 501.45 773.21 399.94 783.01 293 760.67 196.41 719.14 132.01 663.15 77.89 596.55 40.83 563.46 32.65 485.07 19.44 404.17 30.73 349.57 49.42 302.74 78.94 266.71 116.48 376.77 93.78 423.29 100.42 544.57 127.94 658.43 207.76 696.96 278.5 704.14 382.36 728.47 501.45"/><polygon class="cls-3" points="292.5 64.97 264.47 93.99 280.69 103.8 407.23 55.6 427.92 65.39 376.77 93.78 423.31 100.48 448.12 89.5 480.43 67.61 509.1 101.66 549.5 109.99 567.07 94.66 521.75 51.53 568.37 15.99 485.42 2.02 399.83 13.96 342.06 33.74 292.5 64.97"/><polygon class="cls-3" points="603.38 24.65 601.51 53.91 561.96 55.43 626.38 109.99 649.16 186.56 715.29 223.16 744.5 211.11 745.28 190.63 762.96 212.72 774.57 282.38 796.78 295.22 777.03 189.27 733.1 121.13 673.84 63.86 603.38 24.65"/><polyline class="cls-3" points="730.52 466.3 742.96 512.04 691.87 567.47 665.46 563.3 598.96 578.96 542.51 556.36 523.17 567.85 491.49 572.42 384.56 606.22 310.16 598.92 224.55 525.99 174.19 418.61 157.16 297.65 203.81 158.5 294.4 211.02 298.98 237.53 206.85 219.35 233.77 262.49 204.56 276.48 193.85 328.13 249.69 380.08 240.59 313.18 268.8 303.07 286.47 275.36 336.38 285.57 324.99 342.28 379.78 330.91 350.22 419.28 400.54 494.33 367.78 543.9 379.66 566.72 499.98 551.51 525.23 505.26 588.61 493.09 631.77 449.2 651.12 461.53 710.73 413.04 733.55 434.12 730.52 466.3"/><circle class="cls-4" cx="349.92" cy="417.37" r="10.01"/><circle class="cls-4" cx="249.29" cy="378.91" r="7.14"/><circle class="cls-4" cx="302.29" cy="240.13" r="12.66"/><circle class="cls-4" cx="629.82" cy="449.63" r="8.91"/><circle class="cls-4" cx="743.37" cy="506.92" r="17.83"/><circle class="cls-4" cx="679.14" cy="68.66" r="17.83"/><circle class="cls-4" cx="559.45" cy="55.56" r="8.91"/><circle class="cls-4" cx="483.45" cy="64.3" r="17.83"/><circle class="cls-4" cx="212.98" cy="224.3" r="17.83"/><circle class="cls-4" cx="591.49" cy="494.19" r="13.42"/><circle class="cls-4" cx="310.54" cy="600.83" r="13.42"/><circle class="cls-4" cx="331.65" cy="286.29" r="13.42"/><circle class="cls-4" cx="450.06" cy="554.18" r="13.42"/><circle class="cls-4" cx="297.12" cy="64.3" r="13.42"/><g id="_Group_" data-name="&lt;Group&gt;"><g id="_Group_2" data-name="&lt;Group&gt;"><path class="cls-5" d="M735.92,196.65c-8.48-7.77-23.07-9.9-42.8-14.94-26.15-6.93-55.58-13.39-82.47-10.05-10.55,1.53-16.54,5.31-17.2,11,1.39-.34,2.85-.64,4.46-.87,26.89-3.34,56.33,3.12,82.47,10.05,19.73,5,34.32,7.17,42.8,14.94,8.12,7.44,6,15.62,1,23.19l5.31-.73C738.11,219.48,747.54,207.29,735.92,196.65Z"/><path class="cls-6" d="M723.17,206.74c-8.48-7.76-23.08-9.9-42.8-14.94-26.15-6.93-55.58-13.39-82.47-10.05-1.61.23-3.07.53-4.46.87-.47,4,1.72,9,7,14.8,21.12,22.34,31.42,25.06,56.74,41.71l67-9.2C729.13,222.36,731.29,214.18,723.17,206.74Z"/></g><g id="_Group_3" data-name="&lt;Group&gt;"><path class="cls-5" d="M457.33,278.72l17.6,53.44c.37,1.11,48.89-24.92,48.29-26.75S487,264.72,482.05,262.07c-1-.55-25.33,14.82-24.73,16.66Z"/></g><g id="_Group_4" data-name="&lt;Group&gt;"><path class="cls-7" d="M817,183.63c-29.64.56-69,7.79-110.67,21.52-81.75,26.93-239.94,101-231.88,125.49s179.32-10,261.07-36.88c40.54-13.35,75.65-30.32,99.78-47C824.38,229.21,815.86,205.45,817,183.63Z"/><path class="cls-5" d="M868.94,200.7c-4-12-23.48-17.61-52-17.07-1.12,21.81,7.4,45.57,18.29,63.1C859.81,229.75,873,213,868.94,200.7Z"/></g><g id="_Group_5" data-name="&lt;Group&gt;"><path class="cls-5" d="M735.24,268.16A43.13,43.13,0,0,1,734,283c-5.26,21.14-28.37,39.35-43.78,52.66-20.31,17.87-43.77,36.77-69.33,45.78a48,48,0,0,1-5.28,1.4c-1.47,13.1,6.84,17.07,21.94,12.09,25.56-9,49-27.91,69.33-45.78,15.41-13.31,38.52-31.51,43.78-52.66C754.32,281.27,751.88,267.14,735.24,268.16Z"/><path class="cls-6" d="M690.21,335.69C705.62,322.38,728.73,304.18,734,283a43.13,43.13,0,0,0,1.25-14.88H735c-25.52,1.77-68.91,18-79.74,37.22-14.89,26.4-29.43,41.68-38.38,71.1a41.55,41.55,0,0,0-1.29,6.41,48,48,0,0,0,5.28-1.4C646.44,372.46,669.9,353.56,690.21,335.69Z"/></g><g id="_Group_6" data-name="&lt;Group&gt;"><g id="_Group_7" data-name="&lt;Group&gt;"><g id="_Group_8" data-name="&lt;Group&gt;"><path class="cls-4" d="M597.08,286a15.16,15.16,0,1,1-19.15-9.65A15.17,15.17,0,0,1,597.08,286Z"/><path class="cls-8" d="M593.45,287.16a11.33,11.33,0,1,1-14.31-7.22A11.34,11.34,0,0,1,593.45,287.16Z"/><path class="cls-9" d="M579.14,279.94a11.33,11.33,0,1,1,7.09,21.53"/></g><g id="_Group_9" data-name="&lt;Group&gt;"><path class="cls-4" d="M647.09,269.49A15.15,15.15,0,1,1,628,259.84,15.14,15.14,0,0,1,647.09,269.49Z"/><path class="cls-8" d="M643.47,270.69a11.33,11.33,0,1,1-14.31-7.22A11.34,11.34,0,0,1,643.47,270.69Z"/><path class="cls-9" d="M629.16,263.47A11.33,11.33,0,1,1,636.25,285"/></g><g id="_Group_10" data-name="&lt;Group&gt;"><circle class="cls-4" cx="682.72" cy="257.76" r="15.16" transform="translate(-46.37 226.49) rotate(-18.23)"/><path class="cls-8" d="M693.49,254.21a11.33,11.33,0,1,1-14.3-7.22A11.34,11.34,0,0,1,693.49,254.21Z"/><path class="cls-9" d="M679.18,247a11.33,11.33,0,1,1,7.08,21.52"/></g><g id="_Group_11" data-name="&lt;Group&gt;"><path class="cls-4" d="M747.14,236.54A15.16,15.16,0,1,1,728,226.88,15.17,15.17,0,0,1,747.14,236.54Z"/><circle class="cls-8" cx="732.75" cy="241.28" r="11.33" transform="translate(-38.7 241.4) rotate(-18.23)"/><path class="cls-9" d="M729.2,230.52A11.33,11.33,0,0,1,736.29,252"/></g><g id="_Group_12" data-name="&lt;Group&gt;"><path class="cls-4" d="M797.17,220.06A15.16,15.16,0,1,1,778,210.41,15.16,15.16,0,0,1,797.17,220.06Z"/><path class="cls-8" d="M793.53,221.26A11.33,11.33,0,1,1,779.22,214,11.33,11.33,0,0,1,793.53,221.26Z"/><path class="cls-9" d="M779.22,214a11.33,11.33,0,1,1,7.1,21.52"/></g></g></g></g><path class="cls-10" d="M128.81,360S9.25,397,25.2,429.4c7.71,15.64,96.13,15.76,432.41-92.11,0,0-243.51,106.71-410.33,117.58C-39.13,460.49-4.27,393.69,128.81,360Z"/></g></g></g></svg>